# xmcd CD database file
#
# Track frame offsets:
#	150
#	22117
#	42657
#	63635
#	85810
#	106585
#
# Disc length: 1699 seconds
#
# Revision: 5
# Processed by: cddbd v1.5PL3 Copyright (c) Steve Scherf et al.
# Submitted via: CDex 1.50Beta5
#
DISCID=4a06a106
DTITLE=V6 - CHANGE THE WIND
DYEAR=1900
DGENRE=J-pop
TTITLE0=CHANGE THE WIND
TTITLE1=上弦の月
TTITLE2=silver bells
TTITLE3=CHANGE THE WIND カラオケ
TTITLE4=上弦の月 カラオケ
TTITLE5=silver bells カラオケ
EXTD=
EXTT0=
EXTT1=
EXTT2=
EXTT3=
EXTT4=
EXTT5=
PLAYORDER=
